<svg xmlns="http://www.w3.org/2000/svg" version="1.1" xmlns:xlink="http://www.w3.org/1999/xlink" xmlns:svgjs="http://svgjs.dev/svgjs" width="2000" height="1500" viewBox="0 0 2000 1500"><rect width="2000" height="1500" fill="#0d0d15"></rect><g transform="matrix(0.75,0,0,0.75,249.090909090909,568.6631332375861)"><svg viewBox="0 0 396 95" data-background-color="#0d0d15" preserveAspectRatio="xMidYMid meet" height="479" width="2000" xmlns="http://www.w3.org/2000/svg" xmlns:xlink="http://www.w3.org/1999/xlink"><g id="tight-bounds" transform="matrix(1,0,0,1,0.2400000000000091,0.4526857130948372)"><svg viewBox="0 0 395.52 94.09462857381033" height="94.09462857381033" width="395.52"><g><svg viewBox="0 0 542.1117559845677 128.9689632" height="94.09462857381033" width="395.52"><g transform="matrix(1,0,0,1,146.59175598456773,27.164481600000002)"><svg viewBox="0 0 395.52 74.63999999999999" height="74.63999999999999" width="395.52"><g id="textblocktransform"><svg viewBox="0 0 395.52 74.63999999999999" height="74.63999999999999" width="395.52" id="textblock"><g><svg viewBox="0 0 395.52 74.63999999999999" height="74.63999999999999" width="395.52"><g transform="matrix(1,0,0,1,0,0)"><svg width="395.52" viewBox="1 -36.65 247.18 46.65" height="74.63999999999999" data-palette-color="#ffffff"><path d="M5.95 0.2L5.95 0.2Q4.25 0.2 2.9-1.07 1.55-2.35 1.55-5.4L1.55-5.4Q1.55-7.4 2.13-9.85 2.7-12.3 3.53-14.93 4.35-17.55 5.2-20 6.05-22.45 6.6-24.45 7.15-26.45 7.15-27.6L7.15-27.6Q7.15-28.95 6.1-28.95L6.1-28.95Q4.85-28.95 3.75-27.53 2.65-26.1 1.3-23.55L1.3-23.55 1-23.65Q1-27.6 3.1-30.53 5.2-33.45 8.78-35.05 12.35-36.65 16.75-36.65L16.75-36.65Q21.2-36.65 23.98-35.13 26.75-33.6 28.08-31.18 29.4-28.75 29.4-26L29.4-26Q29.4-23.65 28.53-21.33 27.65-19 26.03-17.1 24.4-15.2 22.2-14.05 20-12.9 17.35-12.9L17.35-12.9Q14.6-12.9 11.65-14.3L11.65-14.3Q11-11.85 10.5-9.33 10-6.8 10-4.15L10-4.15Q10-2.85 10.15-1.55L10.15-1.55Q9.3-0.7 8.18-0.25 7.05 0.2 5.95 0.2ZM13.95-17.9L13.95-17.9Q15.95-17.9 17.45-19.03 18.95-20.15 19.78-21.88 20.6-23.6 20.6-25.35L20.6-25.35Q20.6-27.4 19.28-29 17.95-30.6 14.95-30.6L14.95-30.6Q14.55-30.6 14.03-30.55 13.5-30.5 12.95-30.4L12.95-30.4Q13.35-29.15 13.48-27.93 13.6-26.7 13.6-25.55L13.6-25.55Q13.6-23.55 13.3-21.7 13-19.85 12.6-18.05L12.6-18.05Q13.3-17.9 13.95-17.9ZM43.05 0.35L43.05 0.35Q39.3 0.35 36.85-1.15 34.4-2.65 33.22-5.13 32.05-7.6 32.05-10.4L32.05-10.4Q32.05-13.05 33.02-15.7 34-18.35 35.87-20.53 37.75-22.7 40.45-24.03 43.15-25.35 46.65-25.35L46.65-25.35Q50.4-25.35 52.82-23.83 55.25-22.3 56.42-19.8 57.6-17.3 57.6-14.45L57.6-14.45Q57.6-11.85 56.65-9.22 55.7-6.6 53.82-4.42 51.95-2.25 49.25-0.95 46.55 0.35 43.05 0.35ZM44.4-3.9L44.4-3.9Q45.75-3.9 46.65-5.3 47.55-6.7 48-8.88 48.45-11.05 48.45-13.3L48.45-13.3Q48.45-15.3 48.07-17.07 47.7-18.85 46.95-19.98 46.2-21.1 45-21.1L45-21.1Q43.7-21.1 42.77-19.7 41.85-18.3 41.4-16.15 40.95-14 40.95-11.7L40.95-11.7Q40.95-9.7 41.32-7.93 41.7-6.15 42.45-5.03 43.2-3.9 44.4-3.9ZM67.65 0.2L67.65 0.2Q65.84 0.2 64.27-1.05 62.7-2.3 61.72-4.7 60.75-7.1 60.75-10.5L60.75-10.5Q60.75-14 61.75-16.75 62.75-19.5 64.37-21.43 66-23.35 67.92-24.35 69.84-25.35 71.7-25.35L71.7-25.35Q73.75-25.35 75.34-24.08 76.95-22.8 77.55-20.1L77.55-20.1Q78-22.6 78.32-24.88 78.65-27.15 78.65-28.9L78.65-28.9Q78.65-31.2 78.05-32.25L78.05-32.25 78.05-32.55Q79.2-33.85 80.57-34.48 81.95-35.1 83.2-35.1L83.2-35.1Q84.84-35.1 86-34.08 87.15-33.05 87.15-31.15L87.15-31.15Q87.15-30.1 86.8-28.05 86.45-26 85.95-23.38 85.45-20.75 84.92-17.98 84.4-15.2 84.05-12.68 83.7-10.15 83.7-8.3L83.7-8.3Q83.7-6.75 84.02-5.83 84.34-4.9 85.09-4.9L85.09-4.9Q85.65-4.9 86.22-5.28 86.8-5.65 87-6.15L87-6.15 87.34-5.9Q87.34-4.25 86.3-2.88 85.25-1.5 83.65-0.65 82.05 0.2 80.34 0.2L80.34 0.2Q78.5 0.2 77.42-0.83 76.34-1.85 75.9-3.45 75.45-5.05 75.4-6.75L75.4-6.75Q73.84-3.15 71.77-1.48 69.7 0.2 67.65 0.2ZM71-6.15L71-6.15Q72.3-6.15 73.9-8.5 75.5-10.85 76.7-15.35L76.7-15.35 77-16.9Q76.2-18.75 75.27-19.53 74.34-20.3 73.5-20.3L73.5-20.3Q72.25-20.3 71.15-18.93 70.05-17.55 69.37-15.43 68.7-13.3 68.7-10.95L68.7-10.95Q68.7-8.7 69.34-7.43 70-6.15 71-6.15ZM93.14 0.25L93.14 0.25Q91.74 0.25 90.67-0.93 89.59-2.1 89.59-5.3L89.59-5.3Q89.59-5.85 89.62-6.28 89.64-6.7 89.64-6.9L89.64-6.9Q89.84-8.9 90.22-11.88 90.59-14.85 91.09-18.13 91.59-21.4 92.12-24.45 92.64-27.5 93.09-29.78 93.54-32.05 93.84-32.9L93.84-32.9Q94.39-34.4 95.82-35.27 97.24-36.15 98.74-36.15L98.74-36.15Q100.04-36.15 101.12-35.4 102.19-34.65 102.59-32.85L102.59-32.85Q102.29-31.85 101.64-29.33 100.99-26.8 100.24-23.15 99.49-19.5 98.82-15.1 98.14-10.7 97.74-5.9L97.74-5.9Q97.69-5.05 97.59-3.93 97.49-2.8 97.44-1.65L97.44-1.65Q96.84-1 95.64-0.38 94.44 0.25 93.14 0.25ZM111.19 0.15L111.19 0.15Q109.34 0.15 107.84-1.33 106.34-2.8 106.34-5.45L106.34-5.45Q106.34-6.75 106.69-8.4 107.04-10.05 107.47-11.75 107.89-13.45 108.24-14.95 108.59-16.45 108.59-17.4L108.59-17.4Q108.59-18.4 108.19-18.98 107.79-19.55 107.14-19.55L107.14-19.55Q106.29-19.55 105.29-18.55L105.29-18.55 104.99-18.75Q104.94-19.55 105.34-20.65 105.74-21.75 106.56-22.78 107.39-23.8 108.69-24.5 109.99-25.2 111.79-25.2L111.79-25.2Q114.44-25.2 115.72-23.68 116.99-22.15 116.99-19.95L116.99-19.95Q116.99-19.15 116.84-18.4L116.84-18.4Q117.89-19.95 119.44-21.53 120.99-23.1 122.87-24.15 124.74-25.2 126.74-25.2L126.74-25.2Q129.09-25.2 129.94-23.7 130.79-22.2 130.79-19.95L130.79-19.95Q130.79-17.85 130.34-15.45 129.89-13.05 129.44-10.83 128.99-8.6 128.99-7.1L128.99-7.1Q128.99-5.1 130.14-5.1L130.14-5.1Q130.74-5.1 131.19-5.48 131.64-5.85 131.79-6.2L131.79-6.2 132.14-6.05Q132.14-4.2 131.12-2.8 130.09-1.4 128.54-0.63 126.99 0.15 125.39 0.15L125.39 0.15Q123.44 0.15 121.94-1.2 120.44-2.55 120.44-5.6L120.44-5.6Q120.44-7.4 120.92-9.5 121.39-11.6 121.84-13.55 122.29-15.5 122.29-16.75L122.29-16.75Q122.29-17.5 122.02-17.93 121.74-18.35 121.04-18.35L121.04-18.35Q119.89-18.35 118.52-17.3 117.14-16.25 116.17-14.5 115.19-12.75 115.19-10.65L115.19-10.65Q115.19-9.3 115.52-8.05 115.84-6.8 115.84-5.35L115.84-5.35Q115.84-2.65 114.44-1.25 113.04 0.15 111.19 0.15ZM143.29 0.45L143.29 0.45Q140.19 0.45 138.14-0.4 136.09-1.25 135.09-2.58 134.09-3.9 134.09-5.25L134.09-5.25Q134.09-7.15 135.79-8.63 137.49-10.1 140.39-10.1L140.39-10.1Q140.39-7.55 141.04-6.03 141.69-4.5 142.71-3.85 143.74-3.2 144.69-3.2L144.69-3.2Q145.84-3.2 146.61-3.88 147.39-4.55 147.39-5.55L147.39-5.55Q147.39-6.95 145.94-8 144.49-9.05 142.19-10.35L142.19-10.35Q141.04-11.05 139.69-11.98 138.34-12.9 137.39-14.23 136.44-15.55 136.44-17.4L136.44-17.4Q136.44-19.35 137.56-20.85 138.69-22.35 140.54-23.38 142.39-24.4 144.54-24.93 146.69-25.45 148.74-25.45L148.74-25.45Q152.59-25.45 154.54-23.9 156.49-22.35 156.49-20.6L156.49-20.6Q156.49-19.1 154.99-17.9 153.49-16.7 150.39-16.7L150.39-16.7Q150.44-19.25 149.34-20.43 148.24-21.6 146.99-21.6L146.99-21.6Q146.09-21.6 145.49-21.05 144.89-20.5 144.89-19.45L144.89-19.45Q144.89-18.25 145.66-17.38 146.44-16.5 147.61-15.83 148.79-15.15 150.04-14.55L150.04-14.55Q151.74-13.75 153.24-12.85 154.74-11.95 155.69-10.8 156.64-9.65 156.64-8L156.64-8Q156.64-5.75 154.81-3.83 152.99-1.9 149.94-0.73 146.89 0.45 143.29 0.45ZM168.94-26.75L168.94-26.75Q166.94-26.75 165.66-27.98 164.39-29.2 164.39-31.05L164.39-31.05Q164.39-33.05 165.89-34.5 167.39-35.95 169.54-35.95L169.54-35.95Q171.54-35.95 172.81-34.7 174.09-33.45 174.09-31.6L174.09-31.6Q174.09-29.6 172.59-28.18 171.09-26.75 168.94-26.75ZM165.44 0.2L165.44 0.2Q163.49 0.2 161.94-1.18 160.39-2.55 160.39-5.6L160.39-5.6Q160.39-7.35 160.86-8.88 161.34-10.4 161.96-11.85 162.59-13.3 163.06-14.68 163.54-16.05 163.54-17.4L163.54-17.4Q163.54-18.6 163.14-19.13 162.74-19.65 162.19-19.65L162.19-19.65Q161.34-19.65 160.54-18.55L160.54-18.55 160.19-18.75Q160.39-20.75 161.46-22.18 162.54-23.6 164.11-24.4 165.69-25.2 167.24-25.2L167.24-25.2Q169.14-25.2 170.54-23.98 171.94-22.75 171.94-20L171.94-20Q171.94-18.35 171.46-16.53 170.99-14.7 170.36-12.9 169.74-11.1 169.26-9.55 168.79-8 168.79-6.9L168.79-6.9Q168.79-5.95 169.16-5.55 169.54-5.15 169.99-5.15L169.99-5.15Q170.44-5.15 170.86-5.43 171.29-5.7 171.49-6.05L171.49-6.05 171.84-5.95Q171.84-4.1 170.86-2.73 169.89-1.35 168.44-0.58 166.99 0.2 165.44 0.2ZM187.93 10L187.93 10Q185.48 10 183.88 8.55 182.28 7.1 182.28 4.45L182.28 4.45Q182.28 1.6 184.28-2.25L184.28-2.25Q183.93-2.15 183.58-2.1 183.23-2.05 182.88-2.05L182.88-2.05Q179.98-2.05 178.01-4.58 176.03-7.1 176.03-11.6L176.03-11.6Q176.03-15.65 177.61-18.75 179.18-21.85 181.63-23.6 184.08-25.35 186.73-25.35L186.73-25.35Q188.58-25.35 190.08-24.43 191.58-23.5 192.53-21.45L192.53-21.45Q192.58-21.95 192.58-22.35 192.58-22.75 192.58-23.1L192.58-23.1Q192.58-23.95 193.88-24.5 195.18-25.05 196.78-25.05L196.78-25.05Q198.23-25.05 199.48-24.5 200.73-23.95 201.13-22.65L201.13-22.65 201.23-22.35Q200.78-21.95 200.46-19.75 200.13-17.55 199.68-13.65L199.68-13.65Q199.38-11.2 198.93-8.08 198.48-4.95 197.71-1.78 196.93 1.4 195.68 4.08 194.43 6.75 192.53 8.38 190.63 10 187.93 10ZM186.28-7.8L186.28-7.8Q187.73-7.8 189.51-10.18 191.28-12.55 192.33-17L192.33-17Q191.43-18.95 190.51-19.78 189.58-20.6 188.63-20.6L188.63-20.6Q187.38-20.6 186.28-19.35 185.18-18.1 184.51-16.18 183.83-14.25 183.83-12.2L183.83-12.2Q183.83-10.1 184.53-8.95 185.23-7.8 186.28-7.8ZM185.68 4.25L185.68 4.25Q187.38 4.25 189.16 0.93 190.93-2.4 191.63-8.45L191.63-8.45Q187.83-3.3 186.36-0.53 184.88 2.25 184.88 3.4L184.88 3.4Q184.88 4.25 185.68 4.25ZM208.63 0.2L208.63 0.2Q206.48 0.2 205.18-1.25 203.88-2.7 203.88-5.2L203.88-5.2Q203.88-6.55 204.23-8.72 204.58-10.9 205.11-13.53 205.63-16.15 206.13-18.88 206.63-21.6 206.98-24.15 207.33-26.7 207.33-28.65L207.33-28.65Q207.33-31.1 206.68-32.2L206.68-32.2 206.68-32.5Q207.78-33.75 209.08-34.35 210.38-34.95 211.63-34.95L211.63-34.95Q213.53-34.95 214.88-33.6 216.23-32.25 216.23-29.55L216.23-29.55Q216.23-28.1 215.83-26 215.43-23.9 214.88-21.6 214.33-19.3 213.78-17.3L213.78-17.3Q214.73-19.15 216.31-20.98 217.88-22.8 219.91-24 221.93-25.2 224.13-25.2L224.13-25.2Q226.63-25.2 227.51-23.65 228.38-22.1 228.38-19.8L228.38-19.8Q228.38-17.7 227.93-15.33 227.48-12.95 227.03-10.78 226.58-8.6 226.58-7.15L226.58-7.15Q226.58-5.05 227.83-5.05L227.83-5.05Q228.38-5.05 228.81-5.38 229.23-5.7 229.43-6.1L229.43-6.1 229.78-5.85Q229.78-3.9 228.83-2.55 227.88-1.2 226.41-0.5 224.93 0.2 223.38 0.2L223.38 0.2Q221.33 0.2 219.68-1.18 218.03-2.55 218.03-5.65L218.03-5.65Q218.03-7.4 218.51-9.45 218.98-11.5 219.43-13.43 219.88-15.35 219.88-16.65L219.88-16.65Q219.88-18.35 218.68-18.35L218.68-18.35Q217.58-18.35 216.28-17.25 214.98-16.15 214.01-14.5 213.03-12.85 212.73-11.25L212.73-11.25Q212.63-10.85 212.63-10.3L212.63-10.3Q212.63-9.05 213.01-7.9 213.38-6.75 213.38-5.2L213.38-5.2Q213.38-2.9 212.18-1.35 210.98 0.2 208.63 0.2ZM239.53 0.2L239.53 0.2Q237.93 0.2 236.5-0.53 235.08-1.25 234.2-2.8 233.33-4.35 233.33-6.75L233.33-6.75Q233.33-8.05 233.58-10.15 233.83-12.25 234.25-14.75 234.68-17.25 235.13-19.75L235.13-19.75Q234.13-19.7 233.2-19.55 232.28-19.4 231.38-19.2L231.38-19.2 231.28-19.55Q232.28-20.75 233.38-21.6 234.48-22.45 235.68-23L235.68-23Q236.33-26.3 236.78-28.73 237.23-31.15 237.23-31.6L237.23-31.6Q237.23-32.45 238.55-33 239.88-33.55 241.53-33.55L241.53-33.55Q242.98-33.55 244.25-33 245.53-32.45 245.98-31.15L245.98-31.15Q245.68-30.85 245.13-28.93 244.58-27 243.98-24.25L243.98-24.25Q244.93-24.2 245.93-24.15 246.93-24.1 247.98-24L247.98-24Q248.08-23.7 248.13-23.35 248.18-23 248.18-22.6L248.18-22.6Q248.18-21.85 247.95-20.98 247.73-20.1 247.43-19.4L247.43-19.4Q246.23-19.5 245.18-19.63 244.13-19.75 243.13-19.8L243.13-19.8Q242.73-17.65 242.4-15.5 242.08-13.35 241.9-11.6 241.73-9.85 241.73-8.85L241.73-8.85Q241.73-6.75 242.5-6.05 243.28-5.35 244.38-5.35L244.38-5.35Q245.38-5.35 246.18-5.75 246.98-6.15 247.33-6.7L247.33-6.7 247.83-6.55Q247.53-4.5 246.23-2.98 244.93-1.45 243.13-0.63 241.33 0.2 239.53 0.2Z" opacity="1" transform="matrix(1,0,0,1,0,0)" fill="#ffffff" class="wordmark-text-0" data-fill-palette-color="primary" id="text-0"></path></svg></g></svg></g></svg></g></svg></g><g><svg viewBox="0 0 128.97104334456773 128.9689632" height="128.9689632" width="128.97104334456773"><g><svg xmlns="http://www.w3.org/2000/svg" xmlns:xlink="http://www.w3.org/1999/xlink" version="1.1" x="0" y="0" viewBox="1 1 62.001 62" style="enable-background:new 0 0 64 64;" xml:space="preserve" height="128.9689632" width="128.97104334456773" class="icon-icon-0" data-fill-palette-color="accent" id="icon-0"><g fill="#7c0ba6" data-fill-palette-color="accent"><path d="M32 17C27.589 17 24 20.589 24 25S27.589 33 32 33 40 29.411 40 25 36.411 17 32 17M32 31C28.691 31 26 28.309 26 25S28.691 19 32 19 38 21.691 38 25 35.309 31 32 31" fill="#7c0ba6" data-fill-palette-color="accent"></path><path d="M32 21C29.794 21 28 22.794 28 25S29.794 29 32 29 36 27.206 36 25 34.206 21 32 21M32 27C30.897 27 30 26.103 30 25S30.897 23 32 23 34 23.897 34 25 33.103 27 32 27" fill="#7c0ba6" data-fill-palette-color="accent"></path><path d="M58 20A5.01 5.01 0 0 0 53.101 24H50.953A18.95 18.95 0 0 0 46.123 12.29L47.98 10.433C48.576 10.785 49.26 11 50 11 52.206 11 54 9.206 54 7S52.206 3 50 3 46 4.794 46 7C46 7.74 46.215 8.424 46.567 9.019L44.704 10.882A18.87 18.87 0 0 0 35.74 6.378C35.9 5.947 36 5.486 36 5 36 2.794 34.206 1 32 1S28 2.794 28 5C28 5.486 28.1 5.947 28.26 6.378A18.87 18.87 0 0 0 19.297 10.882L17.434 9.019A3.96 3.96 0 0 0 18 7C18 4.794 16.206 3 14 3S10 4.794 10 7 11.794 11 14 11C14.74 11 15.424 10.785 16.019 10.433L17.876 12.29A18.95 18.95 0 0 0 13.046 23.999H10.898A5.01 5.01 0 0 0 6 20C3.243 20 1 22.243 1 25S3.243 30 6 30A5.01 5.01 0 0 0 10.899 26H13.047A18.93 18.93 0 0 0 17.883 37.704L16.02 39.567A3.95 3.95 0 0 0 14 39C11.794 39 10 40.794 10 43S11.794 47 14 47 18 45.206 18 43C18 42.26 17.785 41.576 17.433 40.981L19.229 39.185 21.56 41.727A9.25 9.25 0 0 1 23.942 47.006 3 3 0 0 0 21 50C21 50.771 21.301 51.468 21.78 52A2.98 2.98 0 0 0 21 54C21 55.654 22.346 57 24 57H24.08C24.568 60.387 27.481 63 31 63H33C36.519 63 39.432 60.387 39.92 57H40C41.654 57 43 55.654 43 54A2.98 2.98 0 0 0 42.22 52C42.7 51.468 43 50.771 43 50A3 3 0 0 0 40.058 47.006 9.25 9.25 0 0 1 42.44 41.727L44.771 39.185 46.567 40.981A3.95 3.95 0 0 0 46 43C46 45.206 47.794 47 50 47S54 45.206 54 43 52.206 39 50 39C49.26 39 48.576 39.215 47.981 39.567L46.118 37.704A18.94 18.94 0 0 0 50.954 26H53.102A5.01 5.01 0 0 0 58.001 30C60.758 30 63.001 27.757 63.001 25S60.757 20 58 20M6 28C4.346 28 3 26.654 3 25S4.346 22 6 22 9 23.346 9 25 7.654 28 6 28M48.953 24H45V21.292L43.174 20.647A13 13 0 0 0 42.978 20.176L43.814 18.428 41.9 16.513 44.711 13.702A16.97 16.97 0 0 1 48.953 24M41.451 28.242C41.321 28.622 41.161 29.007 40.974 29.388L40.76 29.823 41.399 31.157 38.157 34.399 36.822 33.761 36.386 33.975A10 10 0 0 1 35.24 34.452L34.782 34.609 34.292 36H29.708L29.217 34.608 28.759 34.451A10 10 0 0 1 27.613 33.974L27.177 33.76 25.842 34.398 22.6 31.156 23.239 29.822 23.025 29.387A10 10 0 0 1 22.548 28.241L22.392 27.783 21 27.292V22.707L22.393 22.216 22.549 21.758C22.679 21.378 22.839 20.993 23.026 20.612L23.24 20.177 22.601 18.843 25.843 15.601 27.178 16.239 27.614 16.025A10 10 0 0 1 28.76 15.548L29.218 15.391 29.708 14H34.292L34.783 15.392 35.241 15.549C35.626 15.681 36.012 15.841 36.387 16.026L36.823 16.24 38.158 15.602 41.4 18.844 40.761 20.178 40.975 20.613C41.162 20.994 41.322 21.379 41.452 21.759L41.608 22.217 43 22.708V27.293L41.607 27.784zM32 51C30.897 51 30 50.103 30 49S30.897 47 32 47 34 47.897 34 49 33.103 51 32 51M50 5C51.103 5 52 5.897 52 7S51.103 9 50 9 48 8.103 48 7 48.897 5 50 5M40.485 15.101L38.571 13.186 36.822 14.022A11 11 0 0 0 36.351 13.826L35.708 12H33V8.858A4 4 0 0 0 34.398 8.182 16.9 16.9 0 0 1 43.287 12.299zM32 3C33.103 3 34 3.897 34 5S33.103 7 32 7 30 6.103 30 5 30.897 3 32 3M29.602 8.182C30.015 8.493 30.486 8.724 31 8.858V12H28.292L27.648 13.826C27.49 13.888 27.333 13.953 27.177 14.022L25.428 13.186 23.514 15.101 20.712 12.299A16.9 16.9 0 0 1 29.602 8.182M14 9C12.897 9 12 8.103 12 7S12.897 5 14 5 16 5.897 16 7 15.103 9 14 9M19.29 13.704L22.101 16.515 20.187 18.43 21.023 20.178C20.954 20.335 20.888 20.492 20.827 20.649L19 21.292V24H15.047A16.95 16.95 0 0 1 19.29 13.704M15.047 26H19V28.708L20.826 29.353C20.888 29.51 20.953 29.667 21.022 29.824L20.186 31.572 22.1 33.487 19.3 36.287A16.95 16.95 0 0 1 15.047 26M14 45C12.897 45 12 44.103 12 43S12.897 41 14 41 16 41.897 16 43 15.103 45 14 45M20.645 37.769L23.515 34.899 25.429 36.814 27.178 35.978C27.333 36.047 27.491 36.112 27.649 36.174L28.292 38H31V45.142A4 4 0 0 0 28.556 47H25.953A11.26 11.26 0 0 0 23.034 40.375zM24 49H28C28 49.732 28.212 50.409 28.556 51H24A1.001 1.001 0 0 1 24 49M33 61H31A5.01 5.01 0 0 1 26.101 57H37.899A5.01 5.01 0 0 1 33 61M40 55H24A1.001 1.001 0 0 1 24 53H40A1.001 1.001 0 0 1 40 55M41 50C41 50.551 40.552 51 40 51H35.444A3.96 3.96 0 0 0 36 49H40C40.552 49 41 49.449 41 50M40.966 40.375A11.26 11.26 0 0 0 38.047 47H35.444A4 4 0 0 0 33 45.142V38H35.708L36.352 36.174C36.51 36.112 36.667 36.047 36.823 35.978L38.572 36.814 40.486 34.899 43.356 37.769zM50 41C51.103 41 52 41.897 52 43S51.103 45 50 45 48 44.103 48 43 48.897 41 50 41M44.699 36.285L41.899 33.485 43.813 31.57 42.977 29.822C43.046 29.665 43.112 29.508 43.173 29.351L45 28.708V26H48.953A16.93 16.93 0 0 1 44.699 36.285M58 28C56.346 28 55 26.654 55 25S56.346 22 58 22 61 23.346 61 25 59.654 28 58 28" fill="#7c0ba6" data-fill-palette-color="accent"></path></g></svg></g></svg></g></svg></g><defs></defs></svg><rect width="395.52" height="94.09462857381033" fill="none" stroke="none" visibility="hidden"></rect></g></svg></g></svg>